# xmcd
#
# Track frame offsets: 
#        150
#        17901
#        39268
#        53153
#        74238
#        93181
#        119713
#        157004
#        180807
#        211783
#        232126
#
# Disc length: 3621 seconds
#
# Revision: 3
# Processed by: cddbd v1.5.2PL0 Copyright (c) Steve Scherf et al.
# Submitted via: ExactAudioCopy v0.95b4
#
DISCID=950e230b
DTITLE=Stevie Ray Vaughan - Peace In The Valley
DYEAR=1997
DGENRE=Blues
TTITLE0=Tightrope
TTITLE1=The Things (that) I Used To Do
TTITLE2=Let Me Love You Baby
TTITLE3=Leave My Little Girl Alone
TTITLE4=Look At Little Sister
TTITLE5=Wall Of Denial
TTITLE6=Rivera Paradise
TTITLE7=Superstition
TTITLE8=Couldn't Stand The Weather - Goun' Down
TTITLE9=Crossfire
TTITLE10=Voodoo CHile (Slight Return)
EXTD=
EXTT0=
EXTT1=
EXTT2=
EXTT3=
EXTT4=
EXTT5=
EXTT6=
EXTT7=
EXTT8=
EXTT9=
EXTT10=
PLAYORDER=
